<!-- Generated by IcoMoon.io -->
<svg version="1.1" xmlns="http://www.w3.org/2000/svg" width="85" height="32" viewBox="0 0 85 32">
<title>ts</title>
<path d="M27.079 1.478c-1.425 1.831 7.658 26.914 11.023 29.212 2.557 1.746 45.24 1.746 46.85 0 1.642-1.781-9.106-27.555-11.023-29.212-2.252-1.947-45.297-1.996-46.85 0zM37.162 2.195h19.639c0 1.322-0.285 2.359-0.856 3.111-0.544 0.726-1.283 1.283-2.217 1.672-0.907 0.363-1.931 0.596-3.072 0.7s-2.295 0.169-3.461 0.195v9.839c0 0.674-0.207 1.257-0.622 1.75-0.389 0.493-0.882 0.907-1.478 1.244-0.596 0.311-1.244 0.545-1.944 0.7-0.674 0.156-1.296 0.233-1.867 0.233v-13.922h-9.722c0-0.752 0.13-1.465 0.389-2.139s0.622-1.257 1.089-1.75c0.493-0.518 1.089-0.921 1.789-1.206s1.478-0.428 2.333-0.428zM57.999 8.966h12.172c0.596 0 1.206 0.13 1.828 0.389 0.622 0.233 1.179 0.557 1.672 0.972 0.493 0.389 0.895 0.856 1.206 1.4s0.467 1.128 0.467 1.75h-16.333c-0.181 0-0.402 0.039-0.661 0.117-0.259 0.052-0.505 0.143-0.739 0.272s-0.428 0.285-0.583 0.467c-0.156 0.181-0.233 0.376-0.233 0.583 0 0.233 0.065 0.441 0.195 0.622 0.13 0.156 0.298 0.285 0.506 0.389 0.207 0.078 0.415 0.143 0.622 0.195 0.233 0.052 0.454 0.091 0.661 0.116 0.778 0 1.737-0.013 2.878-0.039 1.167-0.052 2.385-0.052 3.655 0 1.296 0.026 2.58 0.143 3.85 0.35s2.411 0.557 3.422 1.050c1.011 0.467 1.828 1.115 2.45 1.945 0.648 0.804 0.972 1.854 0.972 3.15v1.594c-0.285 0.856-0.739 1.556-1.361 2.1-0.596 0.544-1.296 0.985-2.1 1.322s-1.672 0.57-2.606 0.7c-0.907 0.13-1.828 0.22-2.761 0.272-0.907 0.052-1.802 0.065-2.683 0.039-0.856-0.026-1.62-0.039-2.295-0.039h-5.405c-0.57-0.104-1.18-0.272-1.828-0.506-0.622-0.233-1.206-0.531-1.75-0.894-0.544-0.389-0.998-0.83-1.361-1.322-0.337-0.518-0.506-1.115-0.506-1.789h16.294c0.13 0 0.35-0.026 0.661-0.078 0.311-0.078 0.622-0.169 0.933-0.272 0.311-0.13 0.583-0.285 0.817-0.467 0.233-0.207 0.35-0.454 0.35-0.739 0-0.259-0.143-0.48-0.428-0.661-0.259-0.207-0.583-0.376-0.972-0.506-0.363-0.13-0.726-0.233-1.089-0.311s-0.622-0.117-0.778-0.117h-10.344c-0.907 0-1.737-0.181-2.489-0.544-0.726-0.363-1.361-0.83-1.906-1.4-0.544-0.596-0.972-1.27-1.283-2.022-0.285-0.752-0.428-1.504-0.428-2.256 0-0.933 0.208-1.763 0.622-2.489s0.959-1.335 1.633-1.828c0.7-0.493 1.491-0.868 2.372-1.128s1.776-0.389 2.683-0.389z"></path>
<path d="M7.606 31.742c-0.694-0.077-1.040-0.263-1.337-0.717-0.621-0.949-0.316-1.958 0.764-2.534 0.469-0.25 0.581-0.27 1.764-0.321 0.753-0.032 1.527-0.12 1.917-0.218l0.653-0.163-0.471-0.245c-0.259-0.135-0.572-0.286-0.696-0.337s-0.395-0.199-0.603-0.33c-0.208-0.13-0.568-0.304-0.8-0.385-0.447-0.157-0.674-0.32-1.099-0.79l-0.264-0.292-0.539 0.342c-1.472 0.935-2.66 1.351-3.903 1.368-1.355 0.018-2.203-0.398-2.789-1.368-0.158-0.261-0.201-0.454-0.201-0.9 0-0.488 0.035-0.619 0.25-0.934 0.401-0.586 1.002-0.68 2.143-0.333 0.631 0.192 2.338 0.224 2.993 0.056 0.255-0.065 0.643-0.203 0.863-0.308l0.4-0.19v-0.72c0-0.987 0.171-1.543 0.634-2.062 0.207-0.232 0.376-0.451 0.376-0.487s0.127-0.298 0.283-0.583c0.156-0.285 0.309-0.694 0.34-0.91 0.088-0.611 0.548-1.495 1.060-2.038 0.529-0.562 1.233-1.090 1.451-1.090 0.082 0 0.148-0.037 0.148-0.083s0.294-0.149 0.652-0.229 0.88-0.206 1.157-0.28c1.751-0.465 2.37-0.533 3.619-0.397 0.509 0.055 1.011 0.124 1.115 0.154 0.17 0.048 0.189 0.022 0.189-0.257 0-0.874-0.259-1.678-1.083-3.365-0.974-1.993-1.117-2.332-1.292-3.065-0.295-1.236-0.068-2.741 0.604-4.002 0.649-1.218 1.886-1.938 3.324-1.935 2.496 0.006 4.422 1.85 4.422 4.234 0 1.069-0.677 1.99-1.694 2.304-0.972 0.3-1.22 0.414-1.435 0.661-0.479 0.55-0.667 1.689-0.461 2.784 0.069 0.368 0.211 1.197 0.314 1.842l0.188 1.173 0.386 0.112c0.644 0.187 1.033 0.443 1.608 1.057 0.666 0.71 0.996 1.396 1.068 2.216 0.033 0.377 0.136 0.759 0.289 1.080 0.131 0.273 0.238 0.547 0.239 0.608 0.001 0.067 0.115 0.111 0.285 0.111 0.747 0 1.399 0.636 1.399 1.365 0 0.576-0.109 0.89-0.425 1.225-0.173 0.183-0.34 0.456-0.371 0.605-0.053 0.256-0.032 0.285 0.349 0.489 0.615 0.329 1.674 0.612 2.337 0.625 0.326 0.006 1.113-0.024 1.748-0.068l1.155-0.079 0.346 0.242c0.428 0.3 0.585 0.679 0.585 1.41 0 0.771-0.231 1.124-0.991 1.515-0.554 0.285-0.589 0.291-1.66 0.284-1.001-0.007-1.161-0.032-1.883-0.294-1.114-0.404-2.588-1.221-2.799-1.552-0.030-0.046-0.086-0.026-0.126 0.047-0.146 0.261-0.947 0.756-1.471 0.91-0.296 0.087-0.655 0.252-0.799 0.366-0.573 0.457-1.983 1.118-2.821 1.322-0.481 0.117-2.105 0.315-3.051 0.372-0.975 0.058-1.005 0.067-1.265 0.34-0.618 0.65-1.156 1.043-2.070 1.511-1.668 0.854-3.596 1.288-5.021 1.129z"></path>
</svg>
